<?xml version="1.0" encoding="UTF-8"?>
<svg width="41px" height="41px" viewBox="0 0 41 41" version="1.1" xmlns="http://www.w3.org/2000/svg" xmlns:xlink="http://www.w3.org/1999/xlink">
    <!-- Generator: Sketch 50.2 (55047) - http://www.bohemiancoding.com/sketch -->
    <title>Group 20</title>
    <desc>Created with Sketch.</desc>
    <defs></defs>
    <g id="Page-1" stroke="none" stroke-width="1" fill="none" fill-rule="evenodd">
        <g id="Group-20" fill="#2BB3FC" fill-rule="nonzero">
            <g id="link">
                <path d="M16.4856154,31.1576777 L11.799739,36.0345812 C9.85707039,38.0564458 6.71106879,38.0564458 4.77003124,36.0349854 C2.82860534,34.0144142 2.82860534,30.7398375 4.76964289,28.7196705 L14.1430267,18.9641658 C16.0840642,16.9439179 19.2303765,16.9439179 21.1714141,18.9641658 C21.8184784,19.6376087 22.8676375,19.6376087 23.5147018,18.9641658 C24.1617661,18.2907229 24.1617661,17.1987932 23.5147018,16.5253503 C20.279458,13.1582166 15.0349828,13.1582166 11.799739,16.5253503 L2.42643286,26.2807741 C-0.808810953,29.6479078 -0.808810953,35.1061823 2.42643286,38.473316 C5.66128833,41.842228 10.9061518,41.842228 14.1431044,38.473316 L18.8289807,33.5964124 C19.476045,32.9229695 19.476045,31.8310397 18.8289807,31.1575968 C18.1819164,30.4841539 17.1326797,30.4842348 16.4856154,31.1576777 Z" id="Shape"></path>
                <path d="M38.4700562,2.52777497 C35.0967978,-0.842591656 29.6268133,-0.842591656 26.2535549,2.52777497 L20.3916944,8.38461027 C19.7170266,9.05869978 19.7170266,10.1516779 20.3916944,10.8257674 C21.0663623,11.499857 22.1602782,11.499857 22.8349461,10.8257674 L28.6968066,4.96893215 C30.7206482,2.94674454 34.0028819,2.94674454 36.0268045,4.96893215 C38.0506462,6.99103884 38.0506462,10.2687596 36.0268045,12.2908663 L25.2774689,23.0310679 C23.2535463,25.0532555 19.9730942,25.0532555 17.9492526,23.0310679 C17.2745847,22.3569783 16.1806688,22.3569783 15.5060009,23.0310679 C14.831333,23.7051574 14.831333,24.7981355 15.5060009,25.472225 C18.8792593,28.8425917 24.3474622,28.8425917 27.7207206,25.472225 L38.4700562,14.7321044 C41.8433146,11.3617378 41.8433146,5.89814159 38.4700562,2.52777497 Z" id="Shape"></path>
            </g>
        </g>
    </g>
</svg>