<?xml version="1.0" encoding="UTF-8"?>
<svg width="429px" height="268px" viewBox="0 0 429 268" version="1.1" xmlns="http://www.w3.org/2000/svg" xmlns:xlink="http://www.w3.org/1999/xlink">
    <!-- Generator: Sketch 50.2 (55047) - http://www.bohemiancoding.com/sketch -->
    <title>Group 14</title>
    <desc>Created with Sketch.</desc>
    <defs>
        <rect id="path-1" x="0" y="0" width="429" height="268"></rect>
        <linearGradient x1="50%" y1="0%" x2="50%" y2="100%" id="linearGradient-3">
            <stop stop-color="#8286EC" offset="0%"></stop>
            <stop stop-color="#4B4ED5" offset="100%"></stop>
        </linearGradient>
        <linearGradient x1="50%" y1="0%" x2="50%" y2="100%" id="linearGradient-4">
            <stop stop-color="#8286EC" offset="0%"></stop>
            <stop stop-color="#4B4ED5" offset="100%"></stop>
        </linearGradient>
    </defs>
    <g id="Page-1" stroke="none" stroke-width="1" fill="none" fill-rule="evenodd">
        <g id="Group-14">
            <mask id="mask-2" fill="white">
                <use xlink:href="#path-1"></use>
            </mask>
            <g id="Mask"></g>
            <g mask="url(#mask-2)">
                <g transform="translate(-1.000000, 0.000000)">
                    <rect id="Rectangle-3-Copy-2" stroke="none" fill="#F5D298" fill-rule="evenodd" x="1" y="0" width="429" height="267"></rect>
                    <path d="M190.279297,185.830845 C180.824219,185.830845 85,205.005469 85,173.583984 C85,142.1625 151.753906,132.005233 145.347656,101.781421 C138.941406,71.5576085 156.573384,42.3374424 182.462891,27.4004135 C196.085937,19.5405554 207.704224,19.5405554 220.333984,20.3397188 C248.728071,22.1363889 274.815002,35.8145409 277.029297,50.5043436 C280.228516,71.7282071 258.173828,93.3905339 296.716797,101.781421 C335.259766,110.172307 357.474609,147.28109 354.853516,170.371094 C352.232422,193.461097 305.728516,177.109424 286.203125,180.859113 C266.677734,184.608801 199.734375,185.830845 190.279297,185.830845 Z" id="Path-44-Copy-2" stroke="none" fill="#F7DDBC" fill-rule="evenodd" opacity="0.8"></path>
                    <path d="M165.375181,109.653801 C161.732124,109.898768 158.794861,112.731691 158.418343,116.363509 C157.599119,124.265608 157.327901,132.933925 157.605077,142.368129 C157.930282,153.437096 159.198444,171.967359 161.409505,197.95352 C161.414914,198.015091 161.414914,198.015091 161.421,198.076599 C161.840144,202.197473 165.520555,205.198317 169.641429,204.779174 L257.534142,195.839396 C261.362658,195.449988 264.275214,192.226162 264.275214,188.377893 L264.275214,117.099083 C264.275214,113.143092 261.202557,109.867313 257.254657,109.614424 C235.248336,108.20477 219.790313,107.5 210.887607,107.5 C201.90262,107.5 186.729576,108.217886 165.375181,109.653801 Z" id="Rectangle-7-Copy-2" stroke="#FFFFFF" stroke-width="1" fill="none"></path>
                    <path d="M169.327477,109.63678 C165.681183,109.890442 162.748762,112.735661 162.385172,116.37264 C161.595415,124.272597 161.334038,132.938042 161.601403,142.368643 C161.915003,153.430073 163.13723,171.941951 165.26803,197.899078 C165.272757,197.956663 165.27815,198.014192 165.284206,198.071652 C165.718401,202.190966 169.409749,205.178346 173.529063,204.744151 L257.786179,195.863069 C261.602824,195.460777 264.5,192.242176 264.5,188.404388 L264.5,117.081705 C264.5,113.132108 261.436949,109.859323 257.496,109.598124 C236.39126,108.199333 221.556852,107.5 213,107.5 C204.364924,107.5 189.805117,108.212208 169.327477,109.63678 Z" id="Rectangle-7-Copy-3" stroke="#FFFFFF" stroke-width="1" fill="none"></path>
                    <g id="Group-6-Copy-2" stroke="none" stroke-width="1" fill="none" fill-rule="evenodd" transform="translate(143.000000, 55.000000)">
                        <g id="Group-5">
                            <g id="Group-5-Copy">
                                <g id="Group-4">
                                    <g id="Group-2">
                                        <path d="M106.338306,29.0964573 C109.153093,25.465884 109.661725,21.3432065 107.864201,16.7284247 C105.167915,9.80625214 92.9863415,8.55478908 90.8979693,6.75264634 C89.9598971,5.94314504 87.0656737,3.80350423 82.9785123,2.87678205 C77.9666788,1.7403999 71.1355102,2.38053532 67.9505231,3.679618 C61.7102787,6.22486955 56.87391,10.9932981 53.1878883,22.1883183 C49.5018665,33.3833386 35.5713426,96.8504648 38.396471,101.217282 C40.2798899,104.128493 68.4236185,102.411824 122.827657,96.0672759 C115.880525,87.7694296 110.384075,80.7340234 106.338306,74.9610573 C102.292536,69.1880912 101.879999,54.5298244 105.100693,30.9862568 L106.338306,29.0964573 Z" id="Path-2" fill="#3E06AD"></path>
                                        <path d="M103.026549,52.7254737 C103.183265,58.3929733 103.535249,62.5822928 104.082499,65.2934321 C104.62975,68.0045714 106.060315,72.6461854 108.374194,79.2182742 L90.0871565,67.4702166 L97.1078516,54.4388116 L103.026549,52.7254737 Z" id="Path-21" fill="#2B0577"></path>
                                        <path d="M98.9574727,55.1824818 C98.6210345,59.5196072 98.6210345,62.6626166 98.9574727,64.6115099 C100.1743,71.6602493 102.587565,76.381682 102.492244,76.5365035 C102.087452,77.193977 97.6000664,75.4350952 89.0300862,71.2598583 L86.2739726,59.3218415 L98.9574727,55.1824818 Z" id="Path-31" fill="#1D0350"></path>
                                        <path d="M63.4775524,46.3085118 C66.1685351,47.2165438 67.7962106,47.9148573 68.360579,48.4034522 C69.2071316,49.1363445 72.2388565,50.3578317 72.2388565,53.9073299 C72.2388565,57.4568281 70.6629421,70.1823 70.6629421,70.1823 C70.6629421,70.1823 69.0088675,70.7356704 66.7830961,71.8450046 C63.8466713,73.3085315 60.0568722,75.5037027 59.1603134,76.3353173 C58.342977,77.0934483 59.2551539,68.7277044 61.4508006,56.1944749 C61.8688361,53.8082376 62.54442,50.5129165 63.4775524,46.3085118 Z" id="Path-20" fill="#2B0577"></path>
                                        <path d="M72.5425843,69.4808708 C63.9574965,71.9230956 55.3889418,78.3660211 46.8369202,88.8096474 C38.2848986,99.2532737 33.3803544,111.343489 32.1232877,125.080292 L70.8495949,125.080292 L133.082192,125.080292 C127.492114,95.8625854 113.970125,76.742243 92.5162227,67.7192647 C80.1177128,62.5047595 80.791487,66.5144662 78.2762635,67.7192647 C77.0515822,68.3058903 75.1403558,68.8930923 72.5425843,69.4808708 Z" id="Path-13" stroke="#FFA300" fill="#F5A623" stroke-linecap="round" stroke-linejoin="round"></path>
                                        <path d="M57.7614178,65.4609375 C57.7614178,70.5319058 61.4743284,48.2647999 62.2643023,44.1664184 C62.6889617,41.9632867 61.65039,37.717378 60.8505057,40.2057909 C60.162403,42.3464548 59.4219125,49.8920046 58.9521484,51.8503365 C57.8817187,56.3126971 57.7614178,62.8591105 57.7614178,65.4609375 Z" id="Path-30" fill="#2B0577"></path>
                                        <path d="M92.2776567,11.9562044 C88.4540534,12.6145501 85.6507348,15.6287494 83.8677012,20.9988025 C81.1931506,29.053882 74.499604,38.6241446 70.3622966,36.7703581 C66.2249893,34.9165716 63.9488428,33.8253165 61.3213479,35.2978373 C58.693853,36.7703581 58.7651086,44.0718878 64.5637026,46.2409258 C70.3622966,48.4099638 72.6877394,51.3249173 72.6877394,53.5855668 C72.6877394,55.8462164 71.2500789,67.8028698 71.2500789,70.2188997 C71.2500789,72.6349296 73.1116879,84.2862112 81.785603,84.2862112 C90.4595181,84.2862112 94.1616732,82.3776374 94.1616732,77.1274877 C94.1616732,71.877338 91.0358371,63.4131501 95.3748113,60.2318944 C99.7137855,57.0506387 105.14445,52.4565893 105.973524,46.2409258 C106.802599,40.0252623 106.207732,25.2600864 105.136769,22.6108737 C104.065806,19.961661 102.543047,16.292484 99.2038424,13.9503272 C96.9777059,12.3888893 94.6689774,11.7241817 92.2776567,11.9562044 Z" id="Path" stroke="#FF5501" fill="#FF5501"></path>
                                        <path d="M93.0365341,11.4420683 C97.7075499,11.5730013 101.023476,12.5030194 102.984311,14.2321225 C105.097108,16.0952273 106.537615,18.5982773 106.648598,18.9869411 C107.755228,22.8623839 107.211707,28.1018975 106.648598,28.9205064 C105.757231,30.2163157 106.355509,20.0024147 102.103924,16.0952273 C101.199667,15.2642196 100.519382,14.4915763 99.4243315,13.8328938 C98.540028,13.3009777 97.4352213,12.6022004 95.9184654,12.0929481 C95.3629388,11.9064295 94.402295,11.6894695 93.0365341,11.4420683 Z" id="Path-22" fill="#180343"></path>
                                        <path d="M106.735203,38.0257506 C106.925524,42.2225618 106.731662,45.2387072 106.153618,47.0741867 C105.445227,49.3235596 104.553961,51.8921653 103.110913,53.7113082 C102.335686,54.6885803 101.154452,56.0395817 99.8206068,57.2257784 C98.0076443,58.8380565 96.0626139,60.1903361 95.8636792,60.2988067 C91.9507225,62.4323755 85.3598765,61.1749621 76.0911414,56.5265668 C84.7864112,57.2182449 90.5639422,57.2182449 93.4237345,56.5265668 C96.2119011,55.8522123 98.2843272,54.6388101 99.8206068,53.7113082 C103.720504,51.3568132 106.02537,46.128294 106.735203,38.0257506 Z" id="Path-26" fill="#FF4141"></path>
                                        <path d="M103.632229,39.7753514 C106.94283,39.7753514 109.13634,37.4886087 109.13634,34.9489051 C109.13634,33.7738159 109.345553,32.2066938 108.400214,31.3937935 C107.302407,30.4497839 104.920794,30.350365 103.141966,30.350365 C101.560126,30.350365 99.4169959,30.6258498 98.1603141,31.3937935 C96.7869133,32.2330629 96.369863,33.6226992 96.369863,34.9489051 C96.369863,36.1928998 96.803834,37.8002662 98.1603141,38.6838717 C99.5731847,39.6042098 101.943223,39.7753514 103.632229,39.7753514 Z" id="Oval-3" stroke="#2B0577" stroke-width="2"></path>
                                        <path d="M86.2739726,41.3868613 C88.2244645,44.2751697 91.0728219,45.7193238 94.819045,45.7193238" id="Path-4" stroke="#FFFFFF" stroke-linecap="round" stroke-linejoin="round"></path>
                                        <ellipse id="Oval" fill="#FFFFFF" cx="86.7328767" cy="33.5693431" rx="1.37671233" ry="1.37956204"></ellipse>
                                        <ellipse id="Oval-Copy-4" fill="#FFFFFF" cx="102.335616" cy="33.5693431" rx="1.37671233" ry="1.37956204"></ellipse>
                                        <path d="M62.9738335,39.43759 C64.1510227,39.1809809 65.0738226,39.095226 65.7422329,39.1803255 C66.0391272,39.2181249 67.1385512,39.5450689 67.6852751,39.6956965 C68.0661267,39.8006248 68.2790906,40.0832434 68.3241669,40.5435524 C67.0133171,40.4089215 66.1526724,40.3343862 65.7422329,40.3199463 C64.6362407,40.2810359 64.0348831,40.3199463 63.8004435,40.3199463 C63.4355012,40.3199463 63.1599645,40.0258275 62.9738335,39.43759 Z" id="Path-16" fill="#FF4141"></path>
                                        <path d="" id="Path-5" stroke="#979797"></path>
                                        <path d="" id="Path-8" stroke="#979797"></path>
                                        <path d="" id="Path-6" stroke="#979797"></path>
                                        <path d="" id="Path-12" stroke="#979797"></path>
                                        <path d="" id="Path-14" stroke="#979797"></path>
                                        <path d="" id="Path-15" stroke="#979797"></path>
                                        <path d="M63.4408043,39.4362989 C65.0297896,38.9547395 66.6188497,39.1613894 68.2079844,40.0562486" id="Path-18" stroke="#FFFFFF" stroke-linecap="round" stroke-linejoin="round"></path>
                                        <path d="M89.2851107,12.5123572 C84.9514956,13.5085766 80.5384928,16.8856388 76.0461024,22.643544 C71.5537121,28.4014492 67.7822433,32.2697914 64.7316961,34.2485708 C68.1486656,35.0533131 70.1321711,35.6868847 70.6822125,36.1492858 C71.4230021,36.7720422 72.4656597,36.491741 73.8171236,35.6729282 C74.9019147,35.0156847 75.9283387,33.7709797 76.747679,32.8685597 C78.5877769,30.8418788 81.8429039,25.0251011 82.1342004,24.4167744 C82.238237,24.1995104 82.6669366,23.0440637 83.2017463,21.5795141 C83.9086726,19.6436317 84.8463307,17.1788711 85.9115325,15.7372855 C86.3269382,15.1750983 86.4617188,14.9482587 86.8288645,14.5483563 C87.3110405,14.0231607 87.7770167,13.6006212 88.1672602,13.2877995 C88.4917313,13.0277013 88.8643481,12.7692205 89.2851107,12.5123572 Z" id="Path-9" fill="#2B0577"></path>
                                        <path d="" id="Path-19" stroke="#979797"></path>
                                        <path d="M68.3708864,34.7677029 C72.7276372,33.827038 76.2801107,33.246607 79.0283069,33.02641" id="Path-10" stroke="#18063B" stroke-width="2" stroke-linecap="round"></path>
                                        <path d="M94.2805945,33.3371707 L95.8288357,33.990352 L97.504127,38.5182188 C97.3928779,38.663914 97.3053022,38.7617378 97.2413999,38.8116901 C97.1152056,38.9103359 96.9722543,38.9116118 96.8979501,39.0254503 C96.8443627,39.1075493 96.8115333,39.3128494 96.8001977,39.3871251 C96.7826013,39.5024235 96.8562844,39.6226823 97.0212469,39.7479016 L94.2805945,38.2026866 L94.2805945,33.3371707 Z" id="Path-28" fill="#FF5501"></path>
                                        <polygon id="Rectangle" fill="#FF5501" points="95.4520548 36.7883212 99.1232877 36.7883212 97.2876712 39.8536029 95.4520548 41.3868613"></polygon>
                                        <path d="M82.2166004,30.6265433 C81.3940642,30.8512578 80.5660693,31.228979 80.0999672,31.576587 C78.0532937,33.102948 78.621055,38.7377724 82.3927137,39.3980331 C86.1643723,40.0582937 91.2787546,39.7890692 92.8009339,35.3617304 C93.3675614,33.7136644 93.1006492,31.9633153 91.358666,31.2217973 C88.4210129,29.971313 82.9394476,30.4290636 82.2166004,30.6265433 Z" id="Path-11" stroke="#2B0577" stroke-width="2"></path>
                                        <path d="M64.9539778,34.3453467 C66.6171171,34.7278183 68.0559727,35.1940343 69.2705446,35.7439945 C70.7129718,36.397128 70.3507558,36.3797635 71.8200617,37.3507891" id="Path-24" stroke="#FFFFFF" stroke-linecap="round"></path>
                                        <g id="Group-3" transform="translate(92.698630, 31.270073)">
                                            <path d="M1.17605382,1.14761419 C1.61598631,1.55911767 2.3750617,1.91277108 3.45328001,2.20857443 C5.07060747,2.65227944 9.04614766,1.78834066 7.98613957,4.4511489 C7.27946752,6.22635439 6.14710136,7.42332354 4.5890411,8.04205634" id="Path-3" stroke="#FFFFFF" fill="#FF5501" stroke-linecap="round" stroke-linejoin="round"></path>
                                            <path d="M0.0253203928,0.874014527 C1.85014074,0.610781036 3.29577458,0.645584441 4.36222191,0.978424741" id="Path-29" stroke="#2B0577" stroke-width="2"></path>
                                        </g>
                                    </g>
                                    <path d="M78.1059775,22.9927007 C76.6799989,25.5031392 75.625356,27.168164 74.9420488,27.9877751 C73.338964,29.9106384 68.5115654,32.5872134 68.8528305,32.0968223 C69.8757575,30.6268964 72.9601399,27.5921892 78.1059775,22.9927007 Z" id="Path-27" fill="#2B0577"></path>
                                    <path d="M70.8252839,69.6120855 C71.9449084,72.3497288 75.4494673,74.6093679 81.3389608,76.3910028 C85.8482899,77.7551232 91.2478048,76.3532901 93.6718967,72.280833 C93.9952687,71.7375703 94.5660267,70.7146139 94.4665761,69.6120855 C94.4314643,69.2228288 94.1665712,68.6272041 93.6718967,67.8252114 L107.006221,83.5564624 L87.8281518,100.915951 L60.5753425,97.5568616 L70.8252839,69.6120855 Z" id="Path-32" fill="#F5A623"></path>
                                    <path d="M70.5454712,64.4203718 C66.2066837,63.9205875 62.732132,66.0371022 60.1218161,70.7699162 C57.5115002,75.5027301 55.7846345,78.2237576 54.941219,78.9329985 C45.4332994,88.172292 38.9940024,98.1131921 35.6233278,108.755699 C32.2526532,119.398206 31.2135461,124.902607 32.5060065,125.268904 L87.8532481,125.268904 C76.3147302,120.615277 66.3792769,117.768134 58.0468884,116.727475 C49.7144998,115.686816 43.8870749,115.686816 40.5646137,116.727475 L70.5454712,64.4203718 Z" id="Path-37" stroke="#F5C123" fill="#F5C123"></path>
                                    <path d="M71.3482733,63.971015 C71.202344,65.1606703 71.1137226,65.9838644 71.0824092,66.4405972 C70.9922861,67.7551166 70.7960953,69.4377565 71.0824092,70.2889556 C71.4014592,71.237478 71.3489235,71.7540757 72.0129896,72.7584255 C74.1404508,75.9760498 79.9321558,76.8927052 82.2343616,81.1148352 C83.2172641,82.917429 82.2343616,88.1729279 82.2343616,89.8035612 C82.2343616,93.436887 82.2343616,105.319742 82.2343616,125.452127 L36.2874839,121.405951 L61.3354024,77.0426123 L71.3482733,63.971015 Z" id="Path-38" fill="#F5C123"></path>
                                    <path d="M93.9543424,66.5845261 C98.5187353,67.1838931 101.760717,68.501333 103.680286,70.5368456 C105.599856,72.5723583 106.672201,74.3039212 106.89732,75.7315344 C107.788926,76.5534523 108.421488,77.1277459 108.795005,77.4544152 C114.827014,82.7298624 119.30607,88.7904194 123.233903,95.8876454 C127.526569,103.644089 130.916887,113.411796 133.404859,125.190765 L106.252435,125.190765 C104.984723,113.699104 103.744845,105.822308 102.532802,101.560376 C98.8734736,88.6930073 94.6745171,82.2350557 93.9543424,79.9166999 C93.1947208,77.4713585 93.1947208,74.499971 93.9543424,71.0025376 L93.9543424,66.5845261 Z" id="Path-39" stroke="#F5C123" fill="#F5C123" stroke-linecap="round" stroke-linejoin="round"></path>
                                    <path d="M59.3606358,71.7372263 C57.9928865,73.8676437 57.53697,76.0250057 57.9928865,78.2093123 C58.4488029,80.3936188 60.5494245,82.3111742 64.2947513,83.9619782" id="Path-41" stroke="#FFFFFF" stroke-linecap="round" stroke-linejoin="round"></path>
                                    <path d="" id="Path-42" stroke="#979797"></path>
                                </g>
                            </g>
                        </g>
                    </g>
                    <polygon id="Rectangle-2-Copy-2" stroke="none" fill="#E6B43C" fill-rule="evenodd" points="1 172 430 174.921875 430 227 1 227"></polygon>
                    <path d="M1.02237848,185.712891 C3.10136111,185.712891 145.877048,184.141927 429.34944,181 C141.719083,184.141927 -1.05660416,185.712891 1.02237848,185.712891 Z" id="Path-51-Copy-2" stroke="#D6A83B" stroke-width="1" fill="none" stroke-linecap="square"></path>
                    <path d="M429.714844,205 L0,217.46875" id="Path-55-Copy-2" stroke="#D6A83B" stroke-width="1" fill="none"></path>
                    <path d="M1,189 L429.279297,189" id="Path-52-Copy-2" stroke="#D6A83B" stroke-width="1" fill="none"></path>
                    <g id="Group-10-Copy-2" stroke="none" stroke-width="1" fill="none" fill-rule="evenodd" transform="translate(131.000000, 178.000000)">
                        <path d="M20.4694702,3 L57.7500117,3 C58.2182847,3 58.6238494,3.32495383 58.7259516,3.78196011 L65.7035935,35.0136719 L13.8012986,35.0136719 L19.4856721,3.8207199 C19.5722886,3.34541275 19.9863353,3 20.4694702,3 Z" id="Path-46" fill="#999BFF"></path>
                        <g id="Group-12">
                            <g id="Group-11">
                                <path d="M40.7256583,18.933364 C40.7256583,18.933364 42.6820859,23.020528 43.5632324,12.9195709 C43.6076634,12.4102394 43.7493484,12.363392 44.7916412,12.9987946 C44.8882904,13.0577138 45.0700989,13.1572571 45.3370667,13.2974243 L49.3278628,30.2289177 L0.387695312,30.0733212 L2.68200684,18.933364 C28.0444411,18.933364 40.7256583,18.933364 40.7256583,18.933364 Z" id="Path-47" fill-opacity="0.8" fill="#7475E5"></path>
                                <polygon id="Path-46-Copy" fill="#999BFF" points="6.07918737 0 41.1632939 0 47.6113741 28 0.819696896 28"></polygon>
                            </g>
                        </g>
                    </g>
                    <path d="M193.562179,199.144635 L195.688965,186.846669 L224.319336,174.145497 C256.418945,167.638335 273.505534,167.303049 275.579101,173.139637 C278.689453,181.89452 274.299804,188.565907 272.46875,190.341298 C270.637695,192.116688 265.889648,193.430653 265.889648,196.464344 C265.889648,199.498036 267.011718,196.972157 268.556152,199.20702 C270.100586,201.441883 267.011718,202.398182 265.889648,202.948719 C265.141601,203.315744 240.876627,202.948719 193.094726,201.847645 L193.095414,201.843666 C186.194154,201.718891 182.380585,201.176941 181.654707,200.217814 C180.892925,199.211247 180.892925,196.920569 181.654707,193.345781 C175.421216,191.596053 171.938773,189.10088 171.207378,185.86026 C170.475983,182.619641 171.679237,178.588906 174.817138,173.768055 L177.554544,171.007801 L191.752632,182.852746 C192.765559,192.327349 193.323357,197.467922 193.426025,198.274464 C193.458117,198.526576 193.503502,198.816633 193.562179,199.144635 Z" id="Combined-Shape-Copy-3" stroke="none" fill-opacity="0.55" fill="#B88919" fill-rule="evenodd"></path>
                    <path d="M185.595157,198.5 C185.128802,198.5 184.706404,198.775269 184.518083,199.201908 C184.506159,199.228922 184.5,199.258127 184.5,199.287656 C184.5,199.40493 184.59507,199.5 184.712344,199.5 L263.393121,199.5 C263.42276,199.5 263.451984,199.493029 263.478432,199.47965 C263.571571,199.432535 263.608881,199.318835 263.561766,199.225696 C263.336607,198.780595 262.880212,198.5 262.381403,198.5 L185.595157,198.5 Z" id="Rectangle-5-Copy-2" stroke="#3E3DBD" stroke-width="1" fill="#3E3DBD" fill-rule="evenodd" transform="translate(224.041132, 199.000000) scale(1, -1) translate(-224.041132, -199.000000) "></path>
                    <path d="M181.309376,156 C175.450896,168.102254 173.114104,176.660482 174.299,181.674683 C175.251418,185.705095 178.16184,188.473344 181.309376,189.656372 C185.12664,191.091124 194.69382,191.974587 210.010914,192.306763 L262.57439,191.276001 C273.235849,188.701457 277.33912,182.050822 274.884205,171.324097 C272.429289,160.597371 247.860198,157.894002 201.176929,163.213989 L181.309376,156 Z" id="Path-45-Copy-2" stroke="none" fill="#F5C123" fill-rule="evenodd"></path>
                    <path d="M183.00014,153.5 C182.952381,153.5 182.90465,153.502281 182.857109,153.506835 C182.032457,153.585828 181.427981,154.318378 181.506974,155.14303 L185.434362,196.14303 C185.508072,196.912531 186.154504,197.5 186.927527,197.5 L262.062312,197.5 C262.82733,197.5 263.469776,196.924282 263.553337,196.163841 L268.058622,155.163841 C268.0646,155.109432 268.067597,155.054737 268.067597,155 C268.067597,154.171573 267.396024,153.5 266.567597,153.5 L183.00014,153.5 Z" id="Rectangle-4-Copy-6" stroke="url(#linearGradient-4)" stroke-width="1" fill="url(#linearGradient-3)" fill-rule="evenodd"></path>
                    <path d="M267.994616,153.254193 C267.735861,152.803531 267.249813,152.5 266.692872,152.5 L183.000081,152.5 C182.965643,152.5 182.931217,152.501186 182.896861,152.503556 C182.378251,152.539328 181.939455,152.834663 181.6986,153.253931 C182.03232,153.050335 182.417033,152.92301 182.828048,152.894659 C182.885307,152.89071 182.942685,152.888733 183.000081,152.888733 L266.692872,152.888733 C267.166231,152.888733 267.613119,153.021372 267.994616,153.254193 Z" id="Combined-Shape-Copy-4" stroke="#6665D8" stroke-width="1" fill="#4346D4" fill-rule="evenodd"></path>
                    <path d="M181.532471,160.505859 L181,153.746826 C181.061361,152.582275 181.728638,152 183.001831,152 C184.275024,152 187.591634,152 192.95166,152" id="Path-49-Copy-2" stroke="#FFFFFF" stroke-width="1" fill="none" stroke-linecap="round" stroke-linejoin="round"></path>
                    <path d="" id="Path-50-Copy-2" stroke="#979797" stroke-width="1" fill="none"></path>
                    <path d="M2,228 L429.76978,228" id="Path-54-Copy-2" stroke="#D3A330" stroke-width="3" fill="none"></path>
                    <path d="" id="Path-58-Copy-2" stroke="#979797" stroke-width="1" fill="none"></path>
                    <path d="" id="Path-59-Copy" stroke="#979797" stroke-width="1" fill="none"></path>
                    <path d="" id="Path-60-Copy" stroke="#979797" stroke-width="1" fill="none"></path>
                    <rect id="Rectangle-8" stroke="none" fill="#1D0350" fill-rule="evenodd" x="1" y="229" width="430" height="39"></rect>
                </g>
            </g>
        </g>
    </g>
</svg>