<?xml version="1.0" encoding="UTF-8"?>
<svg width="209px" height="101px" viewBox="0 0 209 101" version="1.1" xmlns="http://www.w3.org/2000/svg" xmlns:xlink="http://www.w3.org/1999/xlink">
    <!-- Generator: Sketch 50.2 (55047) - http://www.bohemiancoding.com/sketch -->
    <title>people-circle</title>
    <desc>Created with Sketch.</desc>
    <defs>
        <rect id="path-1" x="0" y="0" width="431" height="101"></rect>
        <rect id="path-3" x="0" y="0" width="94" height="102"></rect>
    </defs>
    <g id="Page-1" stroke="none" stroke-width="1" fill="none" fill-rule="evenodd">
        <g id="people-circle" transform="translate(-7.000000, 0.000000)">
            <g id="Group-6">
                <g id="Group-5">
                    <g id="Group-4">
                        <mask id="mask-2" fill="white">
                            <use xlink:href="#path-1"></use>
                        </mask>
                        <g id="Mask"></g>
                        <g mask="url(#mask-2)">
                            <g transform="translate(7.000000, -16.000000)">
                                <path d="M76.6601099,138.36642 C68.7709544,138.36642 0.276592772,143.134964 0.276592772,116.917415 C0.276592772,90.6998661 51.4428424,93.4552506 46.097577,68.2370187 C40.7523116,43.0187867 48.536473,18.6379799 70.1382342,6.17477845 C81.5050715,-0.383352705 91.1991711,-0.383352705 101.737227,0.283455516 C125.428767,1.78256633 147.195256,13.1953825 149.042826,25.4523026 C151.7122,43.1611313 133.310146,61.2358063 165.46974,68.2370187 C197.629333,75.238231 210.676344,78.3856068 208.489348,97.6515109 C206.302353,116.917415 172.988964,131.089417 156.697312,134.218093 C140.40566,137.346768 84.5492654,138.36642 76.6601099,138.36642 Z" id="Path-44-Copy" fill="#1B31EC"></path>
                                <g id="Group-3" stroke-width="1" fill="none" transform="translate(53.000000, 15.000000)">
                                    <g id="Group-2">
                                        <mask id="mask-4" fill="white">
                                            <use xlink:href="#path-3"></use>
                                        </mask>
                                        <g id="Mask"></g>
                                        <g mask="url(#mask-4)" id="Group-15">
                                            <g transform="translate(-45.000000, 5.000000)">
                                                <g>
                                                    <path d="M118.338306,29.0964573 C121.153093,25.465884 121.661725,21.3432065 119.864201,16.7284247 C117.167915,9.80625214 104.986342,8.55478908 102.897969,6.75264634 C101.959897,5.94314504 99.0656737,3.80350423 94.9785123,2.87678205 C89.9666788,1.7403999 83.1355102,2.38053532 79.9505231,3.679618 C73.7102787,6.22486955 68.87391,10.9932981 65.1878883,22.1883183 C61.5018665,33.3833386 47.5713426,96.8504648 50.396471,101.217282 C52.2798899,104.128493 80.4236185,102.411824 134.827657,96.0672759 C127.880525,87.7694296 122.384075,80.7340234 118.338306,74.9610573 C114.292536,69.1880912 113.879999,54.5298244 117.100693,30.9862568 L118.338306,29.0964573 Z" id="Path-2" fill="#3E06AD"></path>
                                                    <path d="M115.026549,52.7254737 C115.183265,58.3929733 115.535249,62.5822928 116.082499,65.2934321 C116.62975,68.0045714 118.060315,72.6461854 120.374194,79.2182742 L102.087157,67.4702166 L109.107852,54.4388116 L115.026549,52.7254737 Z" id="Path-21" fill="#2B0577"></path>
                                                    <path d="M110.957473,55.1824818 C110.621034,59.5196072 110.621034,62.6626166 110.957473,64.6115099 C112.1743,71.6602493 114.587565,76.381682 114.492244,76.5365035 C114.087452,77.193977 109.600066,75.4350952 101.030086,71.2598583 L98.2739726,59.3218415 L110.957473,55.1824818 Z" id="Path-31" fill="#1D0350"></path>
                                                    <path d="M75.4775524,46.3085118 C78.1685351,47.2165438 79.7962106,47.9148573 80.360579,48.4034522 C81.2071316,49.1363445 84.2388565,50.3578317 84.2388565,53.9073299 C84.2388565,57.4568281 82.6629421,70.1823 82.6629421,70.1823 C82.6629421,70.1823 81.0088675,70.7356704 78.7830961,71.8450046 C75.8466713,73.3085315 72.0568722,75.5037027 71.1603134,76.3353173 C70.342977,77.0934483 71.2551539,68.7277044 73.4508006,56.1944749 C73.8688361,53.8082376 74.54442,50.5129165 75.4775524,46.3085118 Z" id="Path-20" fill="#2B0577"></path>
                                                    <path d="M84.5425843,69.4808708 C75.9574965,71.9230956 67.3889418,78.3660211 58.8369202,88.8096474 C50.2848986,99.2532737 45.3803544,111.343489 44.1232877,125.080292 L82.8495949,125.080292 L144.391357,123.904785 C139.261836,95.4707498 125.970125,76.742243 104.516223,67.7192647 C92.1177128,62.5047595 92.791487,66.5144662 90.2762635,67.7192647 C89.0515822,68.3058903 87.1403558,68.8930923 84.5425843,69.4808708 Z" id="Path-13" stroke="#FFA300" fill="#F5A623" stroke-linecap="round" stroke-linejoin="round"></path>
                                                    <path d="M69.7614178,65.4609375 C69.7614178,70.5319058 73.4743284,48.2647999 74.2643023,44.1664184 C74.6889617,41.9632867 73.65039,37.717378 72.8505057,40.2057909 C72.162403,42.3464548 71.4219125,49.8920046 70.9521484,51.8503365 C69.8817187,56.3126971 69.7614178,62.8591105 69.7614178,65.4609375 Z" id="Path-30" fill="#2B0577"></path>
                                                    <path d="M104.277657,11.9562044 C100.454053,12.6145501 97.6507348,15.6287494 95.8677012,20.9988025 C93.1931506,29.053882 86.499604,38.6241446 82.3622966,36.7703581 C78.2249893,34.9165716 75.9488428,33.8253165 73.3213479,35.2978373 C70.693853,36.7703581 70.7651086,44.0718878 76.5637026,46.2409258 C82.3622966,48.4099638 84.6877394,51.3249173 84.6877394,53.5855668 C84.6877394,55.8462164 83.2500789,67.8028698 83.2500789,70.2188997 C83.2500789,72.6349296 85.1116879,84.2862112 93.785603,84.2862112 C102.459518,84.2862112 106.161673,82.3776374 106.161673,77.1274877 C106.161673,71.877338 103.035837,63.4131501 107.374811,60.2318944 C111.713786,57.0506387 117.14445,52.4565893 117.973524,46.2409258 C118.802599,40.0252623 118.207732,25.2600864 117.136769,22.6108737 C116.065806,19.961661 114.543047,16.292484 111.203842,13.9503272 C108.977706,12.3888893 106.668977,11.7241817 104.277657,11.9562044 Z" id="Path" stroke="#75C9BC" fill="#75C9BC"></path>
                                                    <path d="M105.431458,11.3848267 C106.32116,11.3431829 106.971856,11.3431829 107.383545,11.3848267 C110.799082,11.7303198 113.323714,12.7677753 114.984311,14.2321225 C117.097108,16.0952273 118.537615,18.5982773 118.648598,18.9869411 C119.755228,22.8623839 119.211707,28.1018975 118.648598,28.9205064 C117.757231,30.2163157 118.355509,20.0024147 114.103924,16.0952273 C113.199667,15.2642196 112.519382,14.4915763 111.424331,13.8328938 C110.540028,13.3009777 109.520662,12.5055902 108.003906,11.9963379 C107.44838,11.8098193 106.590897,11.6059822 105.431458,11.3848267 Z" id="Path-22" fill="#180343"></path>
                                                    <path d="M118.735203,38.0257506 C118.925524,42.2225618 118.731662,45.2387072 118.153618,47.0741867 C117.445227,49.3235596 116.553961,51.8921653 115.110913,53.7113082 C114.335686,54.6885803 113.154452,56.0395817 111.820607,57.2257784 C110.007644,58.8380565 108.062614,60.1903361 107.863679,60.2988067 C103.950722,62.4323755 97.3598765,61.1749621 88.0911414,56.5265668 C96.7864112,57.2182449 102.563942,57.2182449 105.423734,56.5265668 C108.211901,55.8522123 110.284327,54.6388101 111.820607,53.7113082 C115.720504,51.3568132 118.02537,46.128294 118.735203,38.0257506 Z" id="Path-26" fill="#75C0C9"></path>
                                                    <path d="M115.632229,39.7753514 C118.94283,39.7753514 121.13634,37.4886087 121.13634,34.9489051 C121.13634,33.7738159 121.345553,32.2066938 120.400214,31.3937935 C119.302407,30.4497839 116.920794,30.350365 115.141966,30.350365 C113.560126,30.350365 111.416996,30.6258498 110.160314,31.3937935 C108.786913,32.2330629 108.369863,33.6226992 108.369863,34.9489051 C108.369863,36.1928998 108.803834,37.8002662 110.160314,38.6838717 C111.573185,39.6042098 113.943223,39.7753514 115.632229,39.7753514 Z" id="Oval-3" stroke="#2B0577" stroke-width="2"></path>
                                                    <path d="M98.2739726,41.3868613 C100.224464,44.2751697 103.072822,45.7193238 106.819045,45.7193238" id="Path-4" stroke="#FFFFFF" stroke-linecap="round" stroke-linejoin="round"></path>
                                                    <ellipse id="Oval" fill="#FFFFFF" cx="98.7328767" cy="33.5693431" rx="1.37671233" ry="1.37956204"></ellipse>
                                                    <ellipse id="Oval-Copy-4" fill="#FFFFFF" cx="114.335616" cy="33.5693431" rx="1.37671233" ry="1.37956204"></ellipse>
                                                    <path d="M74.9738335,39.43759 C76.1510227,39.1809809 77.0738226,39.095226 77.7422329,39.1803255 C78.0391272,39.2181249 79.1385512,39.5450689 79.6852751,39.6956965 C80.0661267,39.8006248 80.2790906,40.0832434 80.3241669,40.5435524 C79.0133171,40.4089215 78.1526724,40.3343862 77.7422329,40.3199463 C76.6362407,40.2810359 76.0348831,40.3199463 75.8004435,40.3199463 C75.4355012,40.3199463 75.1599645,40.0258275 74.9738335,39.43759 Z" id="Path-16" fill="#75C0C9"></path>
                                                    <path d="" id="Path-5" stroke="#979797"></path>
                                                    <path d="" id="Path-8" stroke="#979797"></path>
                                                    <path d="" id="Path-6" stroke="#979797"></path>
                                                    <path d="" id="Path-12" stroke="#979797"></path>
                                                    <path d="" id="Path-14" stroke="#979797"></path>
                                                    <path d="" id="Path-15" stroke="#979797"></path>
                                                    <path d="M101.285111,12.5123572 C96.9514956,13.5085766 92.5384928,16.8856388 88.0461024,22.643544 C83.5537121,28.4014492 79.8050275,32.2428936 76.8000488,34.1678772 C78.1096111,34.5475613 79.006716,34.8216498 79.4913635,34.9901428 C80.7749698,35.4364025 81.5312438,35.8139015 81.9176025,36.010376 C82.1333812,36.1201056 82.3674303,36.2559471 82.510437,36.3148193 C83.4498901,36.7015686 84.4656597,36.491741 85.8171236,35.6729282 C86.9019147,35.0156847 87.9283387,33.7709797 88.747679,32.8685597 C90.5877769,30.8418788 93.8429039,25.0251011 94.1342004,24.4167744 C94.238237,24.1995104 94.6669366,23.0440637 95.2017463,21.5795141 C95.9086726,19.6436317 96.8463307,17.1788711 97.9115325,15.7372855 C98.3269382,15.1750983 98.4617188,14.9482587 98.8288645,14.5483563 C99.3110405,14.0231607 99.7770167,13.6006212 100.16726,13.2877995 C100.491731,13.0277013 100.864348,12.7692205 101.285111,12.5123572 Z" id="Path-9" fill="#2B0577"></path>
                                                    <path d="" id="Path-19" stroke="#979797"></path>
                                                    <path d="M76.5649414,35.421875 C83.4589888,34.0450953 88.2801107,33.246607 91.0283069,33.02641" id="Path-10" stroke="#18063B" stroke-width="2" stroke-linecap="round"></path>
                                                    <path d="M77.5949402,38.4423218 C78.9756521,38.4423218 82.7702332,38.0470133 82.7702332,36.9424438 C82.7702332,36.1339073 79.8304626,35.0567628 78.9674683,34.7415161 C78.6514965,34.6260935 76.9790805,34.1719055 76.6090393,34.1719055 C75.2283274,34.1719055 75,35.8954305 75,37 C75,38.1045695 76.2142283,38.4423218 77.5949402,38.4423218 Z" id="Oval-6" fill="#75C9BC"></path>
                                                    <path d="M106.280594,33.3371707 L107.828836,33.990352 L109.504127,38.5182188 C109.392878,38.663914 109.305302,38.7617378 109.2414,38.8116901 C109.115206,38.9103359 108.972254,38.9116118 108.89795,39.0254503 C108.844363,39.1075493 108.811533,39.3128494 108.800198,39.3871251 C108.782601,39.5024235 108.856284,39.6226823 109.021247,39.7479016 L106.280594,38.2026866 L106.280594,33.3371707 Z" id="Path-28" fill="#75C9BC"></path>
                                                    <polygon id="Rectangle" fill="#75C9BC" points="107.452055 36.7883212 111.123288 36.7883212 109.287671 39.8536029 107.452055 41.3868613"></polygon>
                                                    <path d="M94.2166004,30.6265433 C93.3940642,30.8512578 92.5660693,31.228979 92.0999672,31.576587 C90.0532937,33.102948 90.621055,38.7377724 94.3927137,39.3980331 C98.1643723,40.0582937 103.278755,39.7890692 104.800934,35.3617304 C105.367561,33.7136644 105.100649,31.9633153 103.358666,31.2217973 C100.421013,29.971313 94.9394476,30.4290636 94.2166004,30.6265433 Z" id="Path-11" stroke="#2B0577" stroke-width="2"></path>
                                                    <path d="M105.874684,32.4176872 C106.314616,32.8291907 107.073692,33.1828441 108.15191,33.4786474 C109.769238,33.9223524 113.744778,33.0584137 112.68477,35.7212219 C111.978098,37.4964274 110.845731,38.6933965 109.287671,39.3121293" id="Path-3" stroke="#FFFFFF" fill="#75C9BC" stroke-linecap="round" stroke-linejoin="round"></path>
                                                    <path d="M104.723951,32.1440875 C106.680322,31.8112472 108.191731,31.8112472 109.258179,32.1440875" id="Path-29" stroke="#2B0577" stroke-width="2"></path>
                                                    <path d="M90.1059775,22.9927007 C88.6799989,25.5031392 87.625356,27.168164 86.9420488,27.9877751 C85.338964,29.9106384 80.5115654,32.5872134 80.8528305,32.0968223 C81.8757575,30.6268964 84.9601399,27.5921892 90.1059775,22.9927007 Z" id="Path-27" fill="#2B0577"></path>
                                                    <path d="M82.8252839,69.6120855 C83.9449084,72.3497288 87.4494673,74.6093679 93.3389608,76.3910028 C97.8482899,77.7551232 103.247805,76.3532901 105.671897,72.280833 C105.995269,71.7375703 106.566027,70.7146139 106.466576,69.6120855 C106.431464,69.2228288 106.166571,68.6272041 105.671897,67.8252114 L119.006221,83.5564624 L99.8281518,100.915951 L72.5753425,97.5568616 L82.8252839,69.6120855 Z" id="Path-32" fill="#F5A623"></path>
                                                    <path d="M83.3482733,63.971015 C83.202344,65.1606703 83.1137226,65.9838644 83.0824092,66.4405972 C82.9922861,67.7551166 82.7960953,69.4377565 83.0824092,70.2889556 C83.4014592,71.237478 83.3489235,71.7540757 84.0129896,72.7584255 C86.1404508,75.9760498 91.9321558,76.8927052 94.2343616,81.1148352 C95.2172641,82.917429 94.2343616,88.1729279 94.2343616,89.8035612 C94.2343616,93.436887 94.2343616,105.319742 94.2343616,125.452127 L48.2874839,121.405951 L73.3354024,77.0426123 L83.3482733,63.971015 Z" id="Path-38" fill="#F5C123"></path>
                                                    <path d="" id="Path-42" stroke="#979797"></path>
                                                    <path d="M59.6377126,104.387157 L70.1769294,108.213989 C88.8040012,106.091263 103.910305,105.245925 115.49584,105.677975 C115.172898,104.054909 114.851885,102.682376 114.532802,101.560376 C110.873474,88.6930073 106.674517,82.2350557 105.954342,79.9166999 C105.194721,77.4713585 105.194721,74.499971 105.954342,71.0025376 L105.954342,66.5845261 C110.518735,67.1838931 113.760717,68.501333 115.680286,70.5368456 C117.599856,72.5723583 118.672201,74.3039212 118.89732,75.7315344 C119.788926,76.5534523 120.421488,77.1277459 120.795005,77.4544152 C126.827014,82.7298624 131.30607,88.7904194 135.233903,95.8876454 C138.291921,101.413197 142.462053,109.045424 144.194824,116.494873 C144.462207,117.644392 144.5763,119.049544 144.537103,120.710328 C145.019326,128.884159 140.698422,134.072717 131.57439,136.276001 L79.0109138,137.306763 C63.6938195,136.974587 54.1266401,136.091124 50.3093757,134.656372 C47.1618403,133.473344 44.2514184,130.705095 43.2989997,126.674683 C42.1141039,121.660482 44.4508959,113.102254 50.3093757,101 L50.6270903,101.115363 C54.3075973,93.3194039 59.7456409,85.9252808 66.941219,78.9329985 C67.7846345,78.2237576 69.5115002,75.5027301 72.1218161,70.7699162 C74.732132,66.0371022 78.2066837,63.9205875 82.5454712,64.4203718 L59.6377126,104.387157 Z" id="Combined-Shape" stroke="#F5C123" fill="#F5C123"></path>
                                                    <path d="" id="Path-50-Copy-2" stroke="#979797"></path>
                                                    <path d="" id="Path-58-Copy-2" stroke="#979797"></path>
                                                    <path d="" id="Path-59-Copy" stroke="#979797"></path>
                                                    <path d="" id="Path-60-Copy" stroke="#979797"></path>
                                                    <path d="M67.2902832,74.9348145 C68.7067871,78.6773275 71.7082765,81.6863821 76.2947513,83.9619782" id="Path-41" stroke="#FFFFFF" stroke-linecap="round" stroke-linejoin="round"></path>
                                                </g>
                                            </g>
                                        </g>
                                    </g>
                                </g>
                            </g>
                        </g>
                    </g>
                    <path d="M92.2391357,38.317749 C94.2611084,38.6565348 96.2185059,39.4919027 98.1113281,40.8238525" id="Path-7" stroke="#FFFFFF" stroke-linecap="round"></path>
                    <path d="M89.9390869,43.4987793 C91.5775146,42.8719076 93.306722,43.0262858 95.126709,43.9619141" id="Path-17" stroke="#FFFFFF" stroke-linecap="round"></path>
                </g>
                <path d="M135.096436,76.309082 C135.325439,80.3953451 134.102214,83.4109701 131.426758,85.355957" id="Path-18" stroke="#FFFFFF" stroke-linecap="round"></path>
            </g>
        </g>
    </g>
</svg>