<?xml version="1.0" encoding="UTF-8"?>
<svg width="89px" height="111px" viewBox="0 0 89 111" version="1.1" xmlns="http://www.w3.org/2000/svg" xmlns:xlink="http://www.w3.org/1999/xlink">
    <!-- Generator: Sketch 50.2 (55047) - http://www.bohemiancoding.com/sketch -->
    <title>Group 5 Copy 2</title>
    <desc>Created with Sketch.</desc>
    <defs>
        <circle id="path-1" cx="67" cy="67" r="67"></circle>
    </defs>
    <g id="Page-1" stroke="none" stroke-width="1" fill="none" fill-rule="evenodd">
        <g id="Group-5-Copy-2" transform="translate(-22.000000, -23.000000)">
            <mask id="mask-2" fill="white">
                <use xlink:href="#path-1"></use>
            </mask>
            <g id="Mask"></g>
            <g mask="url(#mask-2)" id="Group-4">
                <g transform="translate(-20.000000, 21.000000)">
                    <g>
                        <g id="Group-2">
                            <path d="M115.861139,31.6366242 C118.927997,27.6890961 119.482178,23.2065023 117.523682,18.1888428 C114.585937,10.6623535 101.313477,9.30163574 99.0380859,7.34216309 C98.0160073,6.46199103 94.8625997,4.13555619 90.4094238,3.12792969 C84.9487694,1.89233958 77.5058544,2.58835983 74.0356445,4.00085449 C67.2365723,6.76831055 61.967096,11.9530305 57.9509827,24.1253938 C53.9348694,36.297757 38.7568359,105.305664 41.8349609,110.053711 C43.8870443,113.219076 74.5511068,111.352539 133.827148,104.454102 C126.257886,95.4318401 120.269216,87.7822318 115.861139,81.5052766 C111.453062,75.2283214 111.003581,59.2903646 114.512695,33.6914063 L115.861139,31.6366242 Z" id="Path-2" fill="#3E06AD"></path>
                            <path d="M112.252808,57.3284912 C112.423558,63.4907726 112.807062,68.0458263 113.40332,70.9936523 C113.999579,73.9414784 115.558254,78.9883127 118.079346,86.1341553 L98.1546631,73.3604736 L105.804077,59.1914062 L112.252808,57.3284912 Z" id="Path-21" fill="#2B0577"></path>
                            <path d="M107.819336,60 C107.452769,64.7157634 107.452769,68.1331625 107.819336,70.2521973 C109.145132,77.9163028 111.774511,83.049924 111.670654,83.2182617 C111.229612,83.9331337 106.340371,82.0206988 97.0029297,77.480957 L94,64.5007324 L107.819336,60 Z" id="Path-31" fill="#1D0350"></path>
                            <path d="M69.1621094,50.3513184 C72.0940755,51.338623 73.867513,52.0979004 74.4824219,52.6291504 C75.4047852,53.4260254 78.7080078,54.7541504 78.7080078,58.6135254 C78.7080078,62.4729004 76.9909668,76.3093262 76.9909668,76.3093262 C76.9909668,76.3093262 75.1887661,76.9110067 72.7636719,78.1171875 C69.5642836,79.7084827 65.4350995,82.0952958 64.458252,82.9995117 C63.5677212,83.8238287 64.5615856,74.7277421 66.9538574,61.1003418 C67.4093289,58.5057821 68.1454129,54.9227743 69.1621094,50.3513184 Z" id="Path-20" fill="#2B0577"></path>
                            <path d="M79.0389352,75.5466612 C69.6850335,78.202096 60.3491455,85.2074991 51.0312712,96.5628705 C41.7133969,107.918242 36.3696399,121.063952 35,136 L77.1943347,136 L145,136 C138.909319,104.231541 124.176404,83.4419626 100.801258,73.631264 C87.2924334,67.9615242 88.0265455,72.3212847 85.2860781,73.631264 C83.9517239,74.2691029 81.8693429,74.9075686 79.0389352,75.5466612 Z" id="Path-13" stroke="#FFA300" fill="#F5A623" stroke-linecap="round" stroke-linejoin="round"></path>
                            <path d="M62.934082,71.1757812 C62.934082,76.6894531 66.9794922,52.4783936 67.84021,48.0222168 C68.3028986,45.6267483 67.1713204,41.010165 66.2998047,43.7158203 C65.5500809,46.0433675 64.7432778,54.2476558 64.2314453,56.3769531 C63.0651562,61.2288849 62.934082,68.3468107 62.934082,71.1757812 Z" id="Path-30" fill="#2B0577"></path>
                            <path d="M100.541327,13 C96.3753119,13.7158203 93.3209499,16.9931641 91.3782416,22.8320312 C88.4641791,31.590332 81.1712103,41.9960938 76.6633978,39.9804688 C72.1555853,37.9648438 69.6756048,36.7783203 66.8128119,38.3793945 C63.9500189,39.9804688 64.0276556,47.9194336 70.3455267,50.277832 C76.6633978,52.6362305 79.1970892,55.8056641 79.1970892,58.2636719 C79.1970892,60.7216797 77.630683,73.722168 77.630683,76.3491211 C77.630683,78.9760742 79.6590033,91.6445312 89.1096869,91.6445312 C98.5603705,91.6445312 102.594062,89.5693359 102.594062,83.8608398 C102.594062,78.1523437 99.1883002,68.9492187 103.915839,65.4902344 C108.643378,62.03125 114.56037,57.0361328 115.463691,50.277832 C116.367011,43.5195313 115.718872,27.465332 114.552002,24.5848389 C113.385132,21.7043457 111.726006,17.7148437 108.087769,15.1682129 C105.662277,13.470459 103.146796,12.7477214 100.541327,13 Z" id="Path" stroke="#FF5501" fill="#FF5501"></path>
                            <path d="M101.368164,12.440979 C106.45748,12.5833427 110.070354,13.5945529 112.206787,15.4746094 C114.508789,17.5003662 116.078297,20.2219364 116.199219,20.6445313 C117.40495,24.8583063 116.812755,30.5552378 116.199219,31.4453125 C115.228027,32.854248 115.879883,21.7486572 111.247559,17.5003662 C110.262324,16.5968102 109.521118,15.7567139 108.328003,15.0405273 C107.364508,14.4621742 106.160763,13.7023925 104.508179,13.1486816 C103.902903,12.9458797 102.856232,12.7099788 101.368164,12.440979 Z" id="Path-22" fill="#180343"></path>
                            <path d="M116.293579,41.345459 C116.500944,45.9086585 116.289722,49.1881182 115.659912,51.1838379 C114.888083,53.6295846 113.917002,56.4224337 112.344727,58.4003906 C111.500075,59.4629802 110.21306,60.9319261 108.759766,62.2216797 C106.784448,63.9747122 104.665236,65.445048 104.448486,65.5629883 C100.185116,67.8828209 93.0040446,66.5156334 82.9052734,61.4614258 C92.3792241,62.2134885 98.674146,62.2134885 101.790039,61.4614258 C104.827892,60.7281991 107.085909,59.408865 108.759766,58.4003906 C113.008908,55.8403445 115.520179,50.1553673 116.293579,41.345459 Z" id="Path-26" fill="#FF4141"></path>
                            <path d="M112.480713,43.2478027 C116.346706,43.2478027 118.908203,40.7614237 118.908203,38 C118.908203,36.7223236 119.152514,35.0183893 118.048584,34.1345215 C116.766606,33.1080984 113.985449,33 111.908203,33 C110.06099,33 107.558325,33.2995351 106.09082,34.1345215 C104.487015,35.0470605 104,36.5580142 104,38 C104,39.3525974 104.506775,41.1002894 106.09082,42.0610352 C107.740717,43.0617202 110.508356,43.2478027 112.480713,43.2478027 Z" id="Oval-3" stroke="#2B0577" stroke-width="2"></path>
                            <path d="M94,45 C96.1251628,48.1404622 99.228597,49.7106934 103.310303,49.7106934" id="Path-4" stroke="#FFFFFF" stroke-linecap="round" stroke-linejoin="round"></path>
                            <circle id="Oval" fill="#FFFFFF" cx="94.5" cy="36.5" r="1.5"></circle>
                            <circle id="Oval-Copy-4" fill="#FFFFFF" cx="111.5" cy="36.5" r="1.5"></circle>
                            <path d="M68.6132813,42.8805542 C69.8958904,42.6015427 70.9013291,42.5083013 71.6295971,42.6008301 C71.9530789,42.6419295 73.1509588,42.9974162 73.7466431,43.1611938 C74.1616007,43.2752825 74.3936361,43.5825741 74.442749,44.0830688 C73.0145096,43.9366845 72.0767923,43.8556421 71.6295971,43.8399416 C70.4245608,43.7976343 69.7693503,43.8399416 69.513916,43.8399416 C69.1162923,43.8399416 68.8160807,43.5201458 68.6132813,42.8805542 Z" id="Path-16" fill="#FF4141"></path>
                            <path d="" id="Path-8" stroke="#979797"></path>
                            <path d="M69.1220703,42.8791504 C70.8533529,42.3555501 72.5847168,42.5802409 74.3161621,43.5532227" id="Path-18" stroke="#FFFFFF" stroke-linecap="round" stroke-linejoin="round"></path>
                            <path d="M97.2807922,13.6047058 C92.5590922,14.6878967 87.7508952,18.3597819 82.8562012,24.6203613 C77.9615072,30.8809408 73.8522949,35.0869954 70.5285645,37.2385254 C74.2515312,38.113523 76.412664,38.8024064 77.0119629,39.3051758 C77.8190918,39.9822998 78.9551217,39.6775279 80.4276123,38.7872314 C81.6095489,38.0726096 82.7278915,36.7192398 83.6206055,35.7380371 C85.6254883,33.5344238 89.1721191,27.2098321 89.489502,26.5483975 C89.6028553,26.312166 90.0699458,25.055847 90.6526489,23.4634399 C91.4228821,21.3585519 92.4445096,18.6786138 93.6051025,17.1111755 C94.0577087,16.4999084 94.2045593,16.2532654 94.6045837,15.8184509 C95.1299397,15.2474049 95.6376451,14.787977 96.0628357,14.4478455 C96.4163639,14.1650403 96.8223494,13.8839938 97.2807922,13.6047058 Z" id="Path-9" fill="#2B0577"></path>
                            <path d="M74.4936523,37.8029785 C79.2405599,36.7801921 83.1111654,36.1490885 86.1054688,35.909668" id="Path-10" stroke="#18063B" stroke-width="2" stroke-linecap="round"></path>
                            <path d="M102.723633,36.2475586 L104.410522,36.9577637 L106.23584,41.8809204 C106.114628,42.0393351 106.01921,42.145699 105.949585,42.2000122 C105.81209,42.30727 105.656337,42.3086572 105.575378,42.4324341 C105.516992,42.5217004 105.481223,42.7449236 105.468872,42.8256836 C105.4497,42.9510478 105.529982,43.0818054 105.709717,43.2179565 L102.723633,41.5378418 L102.723633,36.2475586 Z" id="Path-28" fill="#FF5501"></path>
                            <polygon id="Rectangle" fill="#FF5501" points="104 40 108 40 106 43.3328857 104 45"></polygon>
                            <path d="M89.579281,33.3002892 C88.6830849,33.5446216 87.7809411,33.9553185 87.2730986,34.3332732 C85.0431409,35.9928879 85.6617465,42.1196414 89.7711656,42.8375439 C93.8805848,43.5554463 99.4529714,43.2627181 101.111465,38.4488656 C101.728836,36.6569208 101.438021,34.7537635 99.5400391,33.9475098 C96.3393126,32.5878562 90.3668608,33.0855691 89.579281,33.3002892 Z" id="Path-11" stroke="#2B0577" stroke-width="2"></path>
                            <path d="M70.770752,37.34375 C72.5828291,37.759612 74.1505374,38.2665293 75.473877,38.864502 C77.0454768,39.5746551 76.6508235,39.5557746 78.251709,40.6115723" id="Path-24" stroke="#FFFFFF" stroke-linecap="round"></path>
                            <g id="Group-3" transform="translate(101.000000, 34.000000)">
                                <path d="M1.28137207,1.24780273 C1.7607015,1.69523112 2.5877538,2.07975903 3.76252897,2.40138648 C5.52469172,2.88382764 9.85625043,1.94446564 8.70131625,4.83974126 C7.93136013,6.76992501 6.69758805,8.07139147 5,8.74414062" id="Path-3" stroke="#FFFFFF" fill="#FF5501" stroke-linecap="round" stroke-linejoin="round"></path>
                                <path d="M0.0275878906,0.950317383 C2.01582499,0.66410319 3.59091858,0.701944987 4.75286865,1.06384277" id="Path-29" stroke="#2B0577" stroke-width="2"></path>
                            </g>
                        </g>
                        <path d="M85.1005427,25 C83.5468645,27.7296037 82.3977759,29.5399878 81.6532771,30.4311523 C79.9066324,32.5218847 74.6469294,35.4321289 75.0187556,34.8989258 C76.133288,33.3006731 79.4938837,30.0010312 85.1005427,25 Z" id="Path-27" fill="#2B0577"></path>
                        <path d="M77.1678467,75.6893311 C78.387736,78.6659749 82.2061361,81.1228841 88.6230469,83.0600586 C93.5361965,84.5432689 99.41925,83.0190535 102.060425,78.5910645 C102.412755,78.0003741 103.034626,76.8881119 102.92627,75.6893311 C102.888013,75.2660916 102.599398,74.6184679 102.060425,73.74646 L116.588867,90.8510742 L95.6933594,109.726074 L66,106.07373 L77.1678467,75.6893311 Z" id="Path-32" fill="#F5A623"></path>
                        <path d="M76.8629761,70.0443726 C72.1356405,69.5009562 68.3499349,71.8022461 65.5058594,76.9482422 C62.6617839,82.0942383 60.7802734,85.0528158 59.8613281,85.8239746 C49.5019531,95.869873 42.4860026,106.67863 38.8134766,118.250244 C35.1409505,129.821859 34.0087891,135.806803 35.4169922,136.205078 L95.7207031,136.205078 C83.1488851,131.145182 72.3236898,128.049479 63.2451172,126.917969 C54.1665446,125.786458 47.8172607,125.786458 44.1972656,126.917969 L76.8629761,70.0443726 Z" id="Path-37" stroke="#F5C123" fill="#F5C123"></path>
                        <path d="M77.7376709,69.5557861 C77.5786733,70.8493003 77.4821157,71.7443605 77.447998,72.2409668 C77.3498043,73.6702458 77.1360441,75.4997828 77.447998,76.425293 C77.7956197,77.4566229 77.7383793,78.0183204 78.4619141,79.1103516 C80.7798942,82.6088795 87.0902593,83.6055604 89.5986328,88.1962891 C90.6695564,90.1562521 89.5986328,95.8705645 89.5986328,97.6435547 C89.5986328,101.594076 89.5986328,114.514323 89.5986328,136.404297 L39.5371094,132.004883 L66.828125,83.7685547 L77.7376709,69.5557861 Z" id="Path-38" fill="#F5C123"></path>
                        <path d="M102.368164,72.3974609 C107.341309,73.0491536 110.873617,74.4816081 112.965088,76.6948242 C115.056559,78.9080404 116.224935,80.7907715 116.470215,82.3430176 C117.441666,83.2366902 118.130875,83.8611205 118.537842,84.2163086 C125.11003,89.9523107 129.990196,96.5419639 134.269775,104.258789 C138.946859,112.692383 142.640788,123.312826 145.351563,136.120117 L115.767578,136.120117 C114.38634,123.625217 113.035428,115.060764 111.714844,110.426758 C107.727815,96.4360477 103.152832,89.4143066 102.368164,86.8935547 C101.540517,84.234731 101.540517,81.0039368 102.368164,77.2011719 L102.368164,72.3974609 Z" id="Path-39" stroke="#F5C123" fill="#F5C123" stroke-linecap="round" stroke-linejoin="round"></path>
                        <path d="M64.6765137,78 C63.1862793,80.3164063 62.6895345,82.6621094 63.1862793,85.0371094 C63.6830241,87.4121094 65.9717611,89.4970703 70.0524902,91.2919922" id="Path-41" stroke="#FFFFFF" stroke-linecap="round" stroke-linejoin="round"></path>
                        <path d="" id="Path-42" stroke="#979797"></path>
                        <path d="M116.22876,79.170166 C117.376831,83.519043 113.786377,87.1345215 112.251465,88.5249023" id="Path-43" stroke="#FFFFFF" stroke-linecap="round" stroke-linejoin="round"></path>
                    </g>
                </g>
            </g>
        </g>
    </g>
</svg>